<mxfile host="app.diagrams.net" modified="2022-05-10T03:33:38.322Z" agent="5.0 (Windows NT 10.0; Win64; x64) AppleWebKit/537.36 (KHTML, like Gecko) Chrome/101.0.4951.54 Safari/537.36 Edg/101.0.1210.39" etag="4DpDBrp-hcWr6WDNDf3_" version="18.0.2" type="github">
  <diagram id="R2lEEEUBdFMjLlhIrx00" name="Page-1">
    <mxGraphModel dx="1422" dy="794" grid="1" gridSize="10" guides="1" tooltips="1" connect="1" arrows="1" fold="1" page="1" pageScale="1" pageWidth="850" pageHeight="1100" background="#114B5F" math="0" shadow="0" extFonts="Permanent Marker^https://fonts.googleapis.com/css?family=Permanent+Marker">
      <root>
        <mxCell id="0" />
        <mxCell id="1" parent="0" />
        <mxCell id="3B4ZXGG8QwCCTEYR0voW-2" value="expert" style="swimlane;fillColor=#F45B69;strokeColor=#028090;fontColor=#E4FDE1;" parent="1" vertex="1">
          <mxGeometry x="30" y="250" width="200" height="170" as="geometry" />
        </mxCell>
        <mxCell id="3B4ZXGG8QwCCTEYR0voW-6" value="name" style="text;html=1;align=center;verticalAlign=middle;resizable=0;points=[];autosize=1;strokeColor=none;fillColor=none;fontColor=#E4FDE1;" parent="3B4ZXGG8QwCCTEYR0voW-2" vertex="1">
          <mxGeometry x="15" y="70" width="50" height="20" as="geometry" />
        </mxCell>
        <mxCell id="3B4ZXGG8QwCCTEYR0voW-7" value="organiztion" style="text;html=1;align=center;verticalAlign=middle;resizable=0;points=[];autosize=1;strokeColor=none;fillColor=none;fontColor=#E4FDE1;" parent="3B4ZXGG8QwCCTEYR0voW-2" vertex="1">
          <mxGeometry x="5" y="100" width="70" height="20" as="geometry" />
        </mxCell>
        <mxCell id="3B4ZXGG8QwCCTEYR0voW-8" value="address" style="text;html=1;align=center;verticalAlign=middle;resizable=0;points=[];autosize=1;strokeColor=none;fillColor=none;fontColor=#E4FDE1;" parent="3B4ZXGG8QwCCTEYR0voW-2" vertex="1">
          <mxGeometry x="10" y="140" width="60" height="20" as="geometry" />
        </mxCell>
        <mxCell id="3B4ZXGG8QwCCTEYR0voW-5" value="&lt;u&gt;ID&lt;/u&gt;" style="text;html=1;align=center;verticalAlign=middle;resizable=0;points=[];autosize=1;strokeColor=none;fillColor=none;fontColor=#E4FDE1;" parent="3B4ZXGG8QwCCTEYR0voW-2" vertex="1">
          <mxGeometry x="25" y="40" width="30" height="20" as="geometry" />
        </mxCell>
        <mxCell id="3B4ZXGG8QwCCTEYR0voW-10" value="textbook" style="swimlane;fillColor=#F45B69;strokeColor=#028090;fontColor=#E4FDE1;" parent="1" vertex="1">
          <mxGeometry x="410" y="250" width="200" height="170" as="geometry" />
        </mxCell>
        <mxCell id="3B4ZXGG8QwCCTEYR0voW-11" value="name" style="text;html=1;align=center;verticalAlign=middle;resizable=0;points=[];autosize=1;strokeColor=none;fillColor=none;fontColor=#E4FDE1;" parent="3B4ZXGG8QwCCTEYR0voW-10" vertex="1">
          <mxGeometry x="15" y="70" width="50" height="20" as="geometry" />
        </mxCell>
        <mxCell id="3B4ZXGG8QwCCTEYR0voW-12" value="publisher" style="text;html=1;align=center;verticalAlign=middle;resizable=0;points=[];autosize=1;strokeColor=none;fillColor=none;fontColor=#E4FDE1;" parent="3B4ZXGG8QwCCTEYR0voW-10" vertex="1">
          <mxGeometry x="10" y="100" width="60" height="20" as="geometry" />
        </mxCell>
        <mxCell id="3B4ZXGG8QwCCTEYR0voW-13" value="date" style="text;html=1;align=center;verticalAlign=middle;resizable=0;points=[];autosize=1;strokeColor=none;fillColor=none;fontColor=#E4FDE1;" parent="3B4ZXGG8QwCCTEYR0voW-10" vertex="1">
          <mxGeometry x="15" y="140" width="40" height="20" as="geometry" />
        </mxCell>
        <mxCell id="3B4ZXGG8QwCCTEYR0voW-14" value="&lt;u&gt;ISBN&lt;/u&gt;" style="text;html=1;align=center;verticalAlign=middle;resizable=0;points=[];autosize=1;strokeColor=none;fillColor=none;fontColor=#E4FDE1;" parent="3B4ZXGG8QwCCTEYR0voW-10" vertex="1">
          <mxGeometry x="15" y="40" width="40" height="20" as="geometry" />
        </mxCell>
        <mxCell id="3B4ZXGG8QwCCTEYR0voW-15" value="publisher" style="swimlane;fillColor=#F45B69;strokeColor=#028090;fontColor=#E4FDE1;" parent="1" vertex="1">
          <mxGeometry x="410" y="680" width="200" height="170" as="geometry" />
        </mxCell>
        <mxCell id="3B4ZXGG8QwCCTEYR0voW-16" value="manager" style="text;html=1;align=center;verticalAlign=middle;resizable=0;points=[];autosize=1;strokeColor=none;fillColor=none;fontColor=#E4FDE1;" parent="3B4ZXGG8QwCCTEYR0voW-15" vertex="1">
          <mxGeometry x="10" y="70" width="60" height="20" as="geometry" />
        </mxCell>
        <mxCell id="3B4ZXGG8QwCCTEYR0voW-17" value="address" style="text;html=1;align=center;verticalAlign=middle;resizable=0;points=[];autosize=1;strokeColor=none;fillColor=none;fontColor=#E4FDE1;" parent="3B4ZXGG8QwCCTEYR0voW-15" vertex="1">
          <mxGeometry x="10" y="100" width="60" height="20" as="geometry" />
        </mxCell>
        <mxCell id="3B4ZXGG8QwCCTEYR0voW-19" value="&lt;u&gt;name&lt;/u&gt;" style="text;html=1;align=center;verticalAlign=middle;resizable=0;points=[];autosize=1;strokeColor=none;fillColor=none;fontColor=#E4FDE1;" parent="3B4ZXGG8QwCCTEYR0voW-15" vertex="1">
          <mxGeometry x="10" y="40" width="50" height="20" as="geometry" />
        </mxCell>
        <mxCell id="3B4ZXGG8QwCCTEYR0voW-20" value="write" style="rhombus;whiteSpace=wrap;html=1;fillColor=#F45B69;strokeColor=#028090;fontColor=#E4FDE1;" parent="1" vertex="1">
          <mxGeometry x="270" y="290" width="80" height="80" as="geometry" />
        </mxCell>
        <mxCell id="3B4ZXGG8QwCCTEYR0voW-21" value="" style="endArrow=none;html=1;rounded=0;labelBackgroundColor=#114B5F;strokeColor=#028090;fontColor=#E4FDE1;" parent="1" edge="1">
          <mxGeometry width="50" height="50" relative="1" as="geometry">
            <mxPoint x="350" y="330" as="sourcePoint" />
            <mxPoint x="410" y="330" as="targetPoint" />
            <Array as="points" />
          </mxGeometry>
        </mxCell>
        <mxCell id="3B4ZXGG8QwCCTEYR0voW-22" value="" style="endArrow=none;html=1;rounded=0;entryX=0;entryY=0.5;entryDx=0;entryDy=0;labelBackgroundColor=#114B5F;strokeColor=#028090;fontColor=#E4FDE1;" parent="1" target="3B4ZXGG8QwCCTEYR0voW-20" edge="1">
          <mxGeometry width="50" height="50" relative="1" as="geometry">
            <mxPoint x="230" y="330" as="sourcePoint" />
            <mxPoint x="420" y="340" as="targetPoint" />
          </mxGeometry>
        </mxCell>
        <mxCell id="3B4ZXGG8QwCCTEYR0voW-23" value="" style="endArrow=none;html=1;rounded=0;exitX=0.938;exitY=0.425;exitDx=0;exitDy=0;exitPerimeter=0;labelBackgroundColor=#114B5F;strokeColor=#028090;fontColor=#E4FDE1;" parent="1" source="3B4ZXGG8QwCCTEYR0voW-20" edge="1">
          <mxGeometry width="50" height="50" relative="1" as="geometry">
            <mxPoint x="340" y="310" as="sourcePoint" />
            <mxPoint x="410" y="324" as="targetPoint" />
            <Array as="points" />
          </mxGeometry>
        </mxCell>
        <mxCell id="3B4ZXGG8QwCCTEYR0voW-24" value="" style="endArrow=none;dashed=1;html=1;dashPattern=1 3;strokeWidth=2;rounded=0;entryX=0.5;entryY=0;entryDx=0;entryDy=0;labelBackgroundColor=#114B5F;strokeColor=#028090;fontColor=#E4FDE1;" parent="1" target="3B4ZXGG8QwCCTEYR0voW-20" edge="1">
          <mxGeometry width="50" height="50" relative="1" as="geometry">
            <mxPoint x="310" y="210" as="sourcePoint" />
            <mxPoint x="450" y="380" as="targetPoint" />
          </mxGeometry>
        </mxCell>
        <mxCell id="3B4ZXGG8QwCCTEYR0voW-25" value="write_time" style="rounded=0;whiteSpace=wrap;html=1;fillColor=#F45B69;strokeColor=#028090;fontColor=#E4FDE1;" parent="1" vertex="1">
          <mxGeometry x="250" y="150" width="120" height="60" as="geometry" />
        </mxCell>
        <mxCell id="3B4ZXGG8QwCCTEYR0voW-26" value="publish" style="rhombus;whiteSpace=wrap;html=1;fillColor=#F45B69;strokeColor=#028090;fontColor=#E4FDE1;" parent="1" vertex="1">
          <mxGeometry x="470" y="510" width="80" height="80" as="geometry" />
        </mxCell>
        <mxCell id="3B4ZXGG8QwCCTEYR0voW-29" value="" style="endArrow=classic;html=1;rounded=0;entryX=0.5;entryY=1;entryDx=0;entryDy=0;exitX=0.5;exitY=0;exitDx=0;exitDy=0;labelBackgroundColor=#114B5F;strokeColor=#028090;fontColor=#E4FDE1;" parent="1" source="3B4ZXGG8QwCCTEYR0voW-26" target="3B4ZXGG8QwCCTEYR0voW-10" edge="1">
          <mxGeometry width="50" height="50" relative="1" as="geometry">
            <mxPoint x="400" y="550" as="sourcePoint" />
            <mxPoint x="450" y="500" as="targetPoint" />
          </mxGeometry>
        </mxCell>
        <mxCell id="38NYgsa884d90V8lIw0J-1" value="" style="endArrow=classic;html=1;rounded=0;entryX=0.5;entryY=0;entryDx=0;entryDy=0;exitX=0.5;exitY=1;exitDx=0;exitDy=0;labelBackgroundColor=#114B5F;strokeColor=#028090;fontColor=#E4FDE1;" parent="1" source="3B4ZXGG8QwCCTEYR0voW-26" target="3B4ZXGG8QwCCTEYR0voW-15" edge="1">
          <mxGeometry width="50" height="50" relative="1" as="geometry">
            <mxPoint x="470" y="640" as="sourcePoint" />
            <mxPoint x="520" y="590" as="targetPoint" />
          </mxGeometry>
        </mxCell>
      </root>
    </mxGraphModel>
  </diagram>
</mxfile>
